<?xml version="1.0" standalone="no"?>
<!DOCTYPE svg PUBLIC "-//W3C//DTD SVG 20010904//EN"
 "http://www.w3.org/TR/2001/REC-SVG-20010904/DTD/svg10.dtd">
<svg version="1.0" xmlns="http://www.w3.org/2000/svg"
 width="1500.000000pt" height="1500.000000pt" viewBox="0 0 1500.000000 1500.000000"
 preserveAspectRatio="xMidYMid meet">

<g transform="translate(0.000000,1500.000000) scale(0.100000,-0.100000)"
fill="white" stroke="none">
<path d="M2320 14939 c-800 -76 -1512 -529 -1923 -1223 -188 -318 -301 -670
-337 -1051 -14 -153 -14 -10187 0 -10340 76 -814 524 -1523 1224 -1938 318
-188 670 -301 1051 -337 153 -14 10187 -14 10340 0 381 36 733 149 1051 337
700 415 1148 1124 1224 1938 14 153 14 10187 0 10340 -36 381 -149 733 -337
1051 -415 700 -1124 1148 -1938 1224 -133 12 -10225 12 -10355 -1z m2803
-4042 c54 -66 91 -221 107 -441 14 -186 29 -309 40 -320 4 -4 165 -6 357 -3
301 4 362 7 448 25 209 44 263 94 309 288 67 280 115 374 189 374 44 0 79 -28
109 -88 22 -44 23 -58 22 -222 0 -149 -4 -188 -24 -265 -34 -133 -73 -208
-144 -279 -78 -79 -137 -109 -261 -136 -92 -20 -136 -23 -560 -27 -325 -4
-462 -9 -467 -17 -13 -19 -9 -145 6 -181 12 -27 23 -36 58 -45 24 -6 50 -13
58 -16 16 -6 246 -27 480 -44 270 -20 575 -51 650 -67 227 -46 333 -108 333
-193 0 -65 -52 -89 -238 -110 -65 -7 -94 -15 -108 -29 -19 -18 -19 -21 -3 -88
47 -189 57 -236 71 -333 53 -356 39 -600 -42 -779 -67 -149 -158 -232 -316
-290 -70 -25 -79 -26 -287 -25 -118 0 -251 6 -294 12 -44 7 -142 19 -219 27
-181 19 -188 16 -213 -90 -15 -64 -16 -83 -5 -141 19 -107 66 -182 145 -232
72 -45 169 -62 421 -73 263 -11 436 -30 515 -58 170 -60 261 -162 309 -345 31
-116 31 -394 0 -481 -39 -112 -94 -168 -204 -211 -44 -17 -76 -19 -270 -19
-158 0 -251 5 -330 17 -477 75 -677 61 -803 -56 -19 -17 -48 -51 -65 -76 -28
-40 -31 -53 -31 -115 0 -81 20 -123 112 -238 164 -203 381 -342 827 -528 55
-23 120 -50 145 -61 25 -11 54 -24 65 -28 11 -5 85 -36 165 -70 352 -149 555
-256 622 -326 79 -84 41 -194 -66 -194 -93 0 -290 51 -521 135 -38 14 -97 35
-130 46 -61 21 -155 59 -210 84 -16 7 -55 23 -85 35 -30 12 -71 28 -90 37 -19
9 -48 22 -65 29 -177 77 -398 187 -470 234 -16 11 -41 25 -55 32 -41 21 -181
122 -245 178 -142 123 -243 268 -302 431 -24 68 -27 87 -27 229 -1 139 2 163
23 230 35 104 61 148 133 217 92 88 225 144 385 163 185 21 262 21 573 -2 173
-13 368 -23 433 -23 117 0 119 0 142 27 17 19 25 45 30 92 19 171 -42 235
-244 257 -53 5 -103 12 -111 14 -8 3 -98 9 -200 15 -556 30 -771 121 -846 358
-24 75 -28 240 -10 379 22 171 27 156 -46 150 -147 -11 -331 -31 -443 -46 -94
-14 -121 -21 -123 -33 -2 -9 20 -52 49 -95 74 -110 119 -216 119 -279 0 -44
-5 -57 -29 -83 -58 -62 -139 -37 -276 84 -87 77 -107 88 -128 72 -17 -13 -22
-26 -92 -237 -68 -205 -84 -258 -130 -450 -26 -108 -80 -405 -94 -520 -6 -41
-14 -111 -20 -155 -23 -178 -42 -380 -51 -560 -5 -104 -12 -208 -15 -230 -3
-22 -9 -134 -15 -250 -15 -308 -53 -535 -98 -587 -37 -43 -102 -5 -144 82 -63
134 -98 507 -79 850 26 461 58 762 117 1110 33 194 115 575 142 661 70 221
124 382 162 479 38 97 51 150 44 173 -4 12 -28 67 -54 122 -147 309 -230 653
-230 958 0 91 24 275 39 305 5 9 22 44 38 77 58 123 231 269 386 326 124 46
393 90 667 109 209 15 310 26 321 37 5 5 8 59 7 119 l-3 109 -430 6 c-484 8
-568 18 -688 81 -135 73 -220 250 -248 518 -23 231 4 390 72 426 26 13 32 13
58 0 53 -28 108 -112 131 -201 75 -286 111 -359 201 -414 94 -58 191 -72 565
-78 l331 -6 6 24 c4 13 7 51 7 84 0 33 4 96 10 140 5 44 14 127 19 185 10 106
40 251 60 287 5 11 27 35 47 53 30 26 42 31 68 26 17 -4 39 -16 49 -29z
m-2362 -23 c32 -29 78 -134 104 -239 84 -338 111 -1100 50 -1425 -46 -241
-112 -413 -205 -526 -53 -64 -236 -233 -445 -409 -182 -153 -417 -389 -443
-445 -52 -109 -90 -303 -117 -585 -23 -249 -37 -536 -65 -1380 -23 -687 -31
-875 -41 -980 -6 -60 -14 -148 -19 -195 -16 -175 -90 -260 -153 -177 -83 108
-127 368 -127 746 0 202 17 855 30 1156 21 461 30 655 40 790 6 77 15 208 21
290 11 165 31 299 55 360 105 267 212 384 629 688 253 183 342 274 418 422 97
190 109 248 108 545 -1 129 -5 325 -11 435 -5 110 -10 348 -10 528 0 307 1
330 20 366 11 23 31 44 47 50 36 14 90 6 114 -15z m8066 -17 c55 -31 115 -164
130 -288 3 -27 12 -54 20 -60 9 -8 86 -15 206 -20 106 -5 208 -11 227 -13 19
-3 112 -10 205 -16 837 -50 1226 -110 1435 -223 166 -89 290 -226 355 -391
109 -278 166 -1338 197 -3671 12 -917 3 -1635 -22 -1735 -21 -84 -85 -149
-134 -136 -35 9 -83 63 -101 115 -22 65 -50 580 -65 1241 -6 223 -14 500 -20
615 -5 116 -12 327 -15 470 -5 245 -23 845 -45 1540 -13 395 -39 965 -45 974
-2 4 -9 56 -15 115 -46 454 -201 623 -640 699 -284 49 -465 60 -1247 77 -624
13 -1662 -11 -1933 -45 -388 -48 -545 -101 -671 -225 -92 -90 -129 -165 -174
-346 -14 -56 -25 -114 -25 -128 0 -15 -7 -71 -15 -124 -19 -127 -44 -467 -55
-767 -5 -132 -14 -323 -20 -425 -5 -102 -15 -331 -20 -510 -6 -179 -15 -440
-20 -580 -5 -140 -14 -581 -20 -980 -14 -989 -27 -1434 -46 -1542 -41 -227
-173 -236 -249 -18 -18 52 -19 100 -23 1015 -2 528 1 1149 7 1380 6 231 15
632 21 890 6 259 15 556 21 660 5 105 14 276 19 380 10 213 33 480 56 660 50
379 102 513 259 668 110 110 191 153 409 217 38 11 80 20 93 20 13 0 52 7 86
15 112 26 483 62 887 85 96 6 258 17 360 25 102 8 214 15 250 16 36 0 83 3
104 7 l40 7 18 75 c30 119 48 172 76 216 41 66 91 88 139 61z m-8917 -137 c70
-36 115 -117 147 -270 16 -74 18 -138 18 -490 0 -350 -2 -418 -18 -505 -34
-183 -93 -305 -204 -419 -166 -172 -402 -296 -562 -296 -44 0 -52 4 -80 35
-17 20 -31 46 -31 58 0 49 58 114 207 235 238 194 316 308 374 552 18 73 20
108 16 245 -5 161 -21 476 -36 725 -7 96 -6 139 2 149 16 19 115 8 167 -19z
m8132 -1039 c204 -21 257 -37 317 -94 50 -48 81 -102 107 -187 21 -66 24 -95
24 -249 0 -177 -17 -294 -55 -378 -8 -17 -15 -34 -15 -38 0 -16 -71 -123 -106
-158 -60 -61 -125 -89 -229 -99 -306 -28 -893 -16 -1130 23 -101 17 -124 24
-147 46 -16 15 -28 37 -28 50 0 27 61 98 104 120 46 24 283 52 441 53 202 1
475 17 585 34 145 23 207 61 229 141 12 45 13 183 2 294 -10 100 -11 101 -185
101 -78 1 -202 5 -276 10 -74 5 -218 14 -320 20 -256 15 -426 38 -473 64 -100
54 -86 175 23 211 58 19 161 44 235 56 92 14 694 1 897 -20z m2293 3 c229 -17
283 -30 315 -74 33 -46 27 -102 -16 -149 -19 -22 -47 -42 -62 -45 -83 -18
-245 -28 -562 -36 -420 -10 -455 -16 -529 -91 -50 -49 -81 -124 -81 -195 0
-96 66 -219 143 -268 38 -25 223 -45 462 -51 310 -8 508 -38 631 -95 112 -54
102 -122 -26 -173 -105 -42 -657 -60 -1000 -33 -169 14 -246 31 -310 71 -56
35 -129 121 -156 183 -14 31 -30 66 -35 77 -4 11 -18 72 -30 135 -25 135 -23
298 6 394 24 82 77 167 133 215 50 44 199 121 231 121 11 0 32 5 48 12 68 28
472 29 838 2z m-9178 -1438 c29 -27 37 -41 37 -69 0 -50 -25 -81 -221 -280
-244 -248 -297 -317 -336 -435 -22 -66 -22 -74 -21 -677 1 -335 7 -690 13
-787 6 -98 16 -271 21 -385 10 -222 29 -448 57 -658 9 -71 17 -194 17 -273 l1
-144 -33 -29 c-47 -42 -87 -39 -144 10 -76 67 -127 196 -154 391 -28 204 -61
529 -69 700 -4 63 -13 216 -21 339 -18 271 -21 1135 -4 1286 6 55 15 137 20
183 11 103 33 205 65 301 68 201 183 324 410 438 277 139 301 145 362 89z
m7128 -353 c39 -11 89 -29 112 -41 113 -58 110 -163 -7 -205 -48 -18 -208 -41
-385 -57 -125 -12 -249 -32 -380 -62 -245 -57 -366 -122 -429 -233 -25 -44
-59 -163 -75 -265 -15 -93 -59 -738 -71 -1045 -24 -603 -30 -747 -40 -884 -6
-79 -15 -217 -20 -305 -17 -317 -56 -436 -141 -436 -29 0 -91 66 -127 133
l-27 52 1 640 c1 749 35 1738 69 1980 32 231 133 404 311 531 121 86 300 159
456 184 37 5 74 13 82 16 39 15 179 22 381 19 180 -2 233 -7 290 -22z m1435 7
c41 -6 125 -14 185 -20 265 -23 466 -107 636 -268 179 -168 238 -301 289 -650
19 -130 27 -225 50 -562 15 -224 23 -1201 12 -1520 -11 -298 -24 -405 -58
-474 -37 -72 -100 -87 -158 -36 -79 69 -91 191 -106 1015 -6 314 -15 638 -21
720 -5 83 -14 221 -19 307 -10 181 -35 415 -55 538 -8 47 -17 103 -21 125 -27
174 -143 301 -346 378 -129 49 -261 81 -478 117 -414 68 -533 100 -560 149
-19 37 -11 79 21 116 42 47 89 67 174 75 92 8 360 2 455 -10z m-1972 -786 c50
-35 86 -163 102 -367 13 -155 29 -280 39 -290 7 -7 1785 -26 1808 -19 18 6 24
29 34 152 28 328 64 471 126 499 61 28 112 -28 144 -155 77 -309 103 -863 69
-1474 -23 -417 -99 -626 -268 -741 -24 -16 -46 -29 -50 -29 -4 0 -20 -7 -37
-16 -62 -33 -195 -61 -400 -85 -135 -16 -864 -16 -970 -1 -280 41 -317 49
-425 90 -170 64 -278 192 -336 397 -40 141 -63 316 -69 527 -11 355 19 1007
56 1228 6 36 15 91 19 124 10 67 46 128 93 156 39 24 37 24 65 4z"/>
<path d="M5251 9161 c-12 -21 -16 -377 -5 -405 5 -13 27 -16 138 -17 131 0
184 -3 541 -34 105 -9 204 -17 220 -18 29 -2 30 -1 29 43 -2 118 -45 360 -67
378 -7 6 -88 15 -182 22 -93 6 -172 13 -175 15 -4 2 -94 9 -201 14 -107 6
-215 14 -241 17 -40 5 -48 3 -57 -15z"/>
<path d="M4525 9149 c-27 -5 -102 -13 -164 -19 -252 -23 -428 -80 -493 -161
-35 -44 -58 -123 -58 -205 0 -68 14 -90 52 -81 13 4 93 11 178 17 85 5 196 15
245 21 50 5 200 13 335 17 l245 7 3 187 c3 241 12 228 -165 227 -71 -1 -150
-5 -178 -10z"/>
<path d="M4260 8403 c-47 -2 -157 -10 -245 -18 -141 -13 -162 -17 -177 -36
-21 -25 -21 -33 -8 -114 14 -91 65 -207 117 -272 32 -40 38 -43 84 -43 27 0
75 6 107 14 125 31 238 48 507 76 61 6 135 15 165 18 l55 7 0 185 0 185 -260
1 c-143 0 -298 -1 -345 -3z"/>
<path d="M5250 8396 c-10 -13 -12 -45 -7 -145 8 -153 22 -232 43 -248 8 -6 72
-14 142 -18 70 -3 187 -11 260 -15 123 -9 284 -1 367 16 47 10 100 40 118 67
28 44 49 136 45 199 -10 132 -75 149 -609 155 -310 4 -346 3 -359 -11z"/>
<path d="M9850 5999 c0 -93 16 -447 30 -679 17 -274 68 -346 276 -389 85 -17
163 -22 556 -31 562 -13 746 -5 835 38 127 61 148 128 163 516 6 155 15 353
19 441 4 88 6 166 3 173 -3 9 -201 12 -943 12 l-939 0 0 -81z"/>
</g>
</svg>
